<?xml version="1.0" encoding="utf-8"?>
<!-- Generator: Adobe Illustrator 21.1.0, SVG Export Plug-In . SVG Version: 6.00 Build 0)  -->
<svg version="1.1" id="weather-icon-chancesnow" xmlns="http://www.w3.org/2000/svg" xmlns:xlink="http://www.w3.org/1999/xlink"
	 x="0px" y="0px" viewBox="0 0 64 64" style="enable-background:new 0 0 64 64;" xml:space="preserve">
<style type="text/css">
	.st0{fill:#FFFFFF;}
</style>
<path class="st0" d="M50.9,24.6c0.1-0.8,0.2-1.6,0.2-2.4c0-7.4-6-13.4-13.4-13.4c-4.5,0-8.7,2.3-11.2,6c-1.2-0.5-2.4-0.8-3.7-0.8
	c-5.1,0-9.3,4.2-9.3,9.3v0.3c-4.1,1.3-7,5.2-7,9.7c0,5.6,4.6,10.2,10.2,10.2h5c1.6,0,1.5-2.6,0-2.6h-5c-4.2,0-7.5-3.4-7.5-7.5
	c0-3.6,2.5-6.7,6.1-7.4l1.3-0.3l-0.2-1.3c-0.1-0.4-0.1-0.7-0.1-1.1c0-3.6,3-6.6,6.6-6.6c1.2,0,2.4,0.3,3.5,1l1.2,0.7l0.7-1.2
	c1.9-3.5,5.5-5.7,9.5-5.7c5.9,0,10.7,4.8,10.7,10.7c0,1.1-0.2,2.2-0.5,3.3l-0.6,1.9l2.1-0.1h0.3c3.8,0,6.8,3.1,6.8,6.8
	c0,3.8-3.1,6.8-6.8,6.8h-5.7c-1.7,0-2,2.6,0,2.6h5.7c5.2,0,9.5-4.3,9.5-9.5C59.2,29.2,55.5,25.2,50.9,24.6z"/>
<path class="st0" d="M42.2,46.4h-5.1c-0.1-0.4-0.3-0.8-0.5-1.2l2.3-2.3c0.4-0.4,0.4-1.1,0-1.5s-1.1-0.4-1.5,0l-2.3,2.3
	c-0.4-0.2-0.8-0.4-1.2-0.5v-5.1c0-0.6-0.5-1.1-1.1-1.1s-1.1,0.5-1.1,1.1v5.1c-0.4,0.1-0.8,0.3-1.2,0.5l-2.2-2.2
	c-0.4-0.4-1.1-0.4-1.5,0s-0.4,1.1,0,1.5l2.2,2.2c-0.2,0.4-0.4,0.8-0.5,1.2h-5.1c-0.6,0-1.1,0.5-1.1,1.1s0.5,1.1,1.1,1.1h5.1
	c0.1,0.4,0.3,0.8,0.5,1.2l-2.3,2.3c-0.4,0.4-0.4,1.1,0,1.5c0.2,0.2,0.5,0.3,0.8,0.3s0.5-0.1,0.8-0.3l2.3-2.3
	c0.4,0.2,0.8,0.4,1.2,0.5v5.1c0,0.6,0.5,1.1,1.1,1.1s1.1-0.5,1.1-1.1v-5.1c0.4-0.1,0.8-0.3,1.2-0.5l2.2,2.2c0.2,0.2,0.5,0.3,0.8,0.3
	s0.6-0.1,0.8-0.3c0.4-0.4,0.4-1.1,0-1.5l-2.2-2.2c0.2-0.4,0.4-0.8,0.5-1.2h5.1c0.6,0,1.1-0.5,1.1-1.1C43.3,46.9,42.8,46.4,42.2,46.4
	z M32.9,49.2c-0.9,0-1.7-0.8-1.7-1.7s0.8-1.7,1.7-1.7s1.7,0.8,1.7,1.7C34.6,48.5,33.8,49.2,32.9,49.2z"/>
</svg>
