<?xml version="1.0" encoding="utf-8"?>
<!-- Generator: Adobe Illustrator 21.1.0, SVG Export Plug-In . SVG Version: 6.00 Build 0)  -->
<svg version="1.1" id="weather-icon-partlysunny" xmlns="http://www.w3.org/2000/svg" xmlns:xlink="http://www.w3.org/1999/xlink"
	 x="0px" y="0px" viewBox="0 0 64 64" style="enable-background:new 0 0 64 64;" xml:space="preserve">
<style type="text/css">
	.st0{fill:#FFFFFF;}
</style>
<path class="st0" d="M43.1,13.9c-0.7,0-1.2-0.6-1.2-1.2V9.2c0-0.7,0.6-1.2,1.2-1.2c0.7,0,1.2,0.6,1.2,1.2v3.4
	C44.3,13.3,43.8,13.9,43.1,13.9z M57.6,25h-3.4c-0.7,0-1.2-0.5-1.2-1.2s0.5-1.2,1.2-1.2h3.4c0.7,0,1.2,0.5,1.2,1.2
	C58.9,24.5,58.3,25,57.6,25z M51.3,17.1c-0.3,0-0.6-0.1-0.9-0.4c-0.5-0.5-0.5-1.3,0-1.7l2.4-2.4c0.5-0.5,1.3-0.5,1.7,0
	c0.5,0.5,0.5,1.3,0,1.7l-2.4,2.4C52,17,51.6,17.1,51.3,17.1z M53.7,35.4c-0.3,0-0.6-0.1-0.9-0.4l-2.4-2.4c-0.5-0.5-0.5-1.3,0-1.7
	c0.5-0.5,1.3-0.5,1.7,0l2.4,2.4c0.5,0.5,0.5,1.3,0,1.7C54.4,35.3,54,35.4,53.7,35.4z M35.3,17.2c-0.3,0-0.6-0.1-0.9-0.4L32,14.5
	c-0.5-0.5-0.5-1.3,0-1.7c0.5-0.5,1.3-0.5,1.7,0l2.4,2.4c0.5,0.5,0.5,1.3,0,1.7C35.9,17.1,35.6,17.2,35.3,17.2z"/>
<path class="st0" d="M45.6,57.8H16c-5.1,0-9.3-4.2-9.3-9.3c0-4,2.6-7.6,6.3-8.8v-0.2c0-4.7,3.8-8.5,8.5-8.5c1.1,0,2.2,0.2,3.2,0.7
	c2.2-3.4,6-5.4,10.1-5.4c6.7,0,12.2,5.5,12.2,12.2c0,0.7-0.1,1.4-0.2,2.1c4.2,0.6,7.5,4.2,7.5,8.6C54.2,53.9,50.4,57.8,45.6,57.8z
	 M21.4,33.7c-3.2,0-5.8,2.6-5.8,5.8c0,0.3,0,0.6,0.1,1l0.2,1.3L14.6,42c-3.1,0.6-5.3,3.4-5.3,6.5c0,3.7,3,6.7,6.7,6.7h29.6
	c3.3,0,6-2.7,6-6s-2.7-6-6-6h-0.3l-2,0.1l0.6-1.9c0.3-0.9,0.5-1.9,0.5-2.9c0-5.3-4.3-9.5-9.5-9.5c-3.5,0-6.8,2-8.4,5.1l-0.7,1.3
	l-1.2-0.7C23.6,33.9,22.5,33.7,21.4,33.7z"/>
<path class="st0" d="M44.6,16c-4.2-0.8-8.2,2-8.9,6.2c-0.1,0.4-0.1,0.7-0.1,1.1c-0.1,0.5,0.3,1,0.9,1.1c1.1,0.1,1-1,1.2-1.7
	c0.6-3.1,3.5-5.1,6.6-4.6c3.1,0.6,5.1,3.5,4.6,6.6c-0.1,0.7-0.3,1.4-0.7,2c-0.5,0.7-1.3,1.3-2,1.8c-0.6,0.4-0.3,1.3,0.4,1.4
	c0.8,0.2,1.5-0.4,2.1-1c0.7-0.6,1.3-1.5,1.7-2.4c0.2-0.5,0.4-1,0.5-1.5C51.6,20.7,48.8,16.7,44.6,16z"/>
</svg>
