<?xml version="1.0" encoding="utf-8"?>
<!-- Generator: Adobe Illustrator 21.1.0, SVG Export Plug-In . SVG Version: 6.00 Build 0)  -->
<svg version="1.1" id="weather-icon-sleet" xmlns="http://www.w3.org/2000/svg" xmlns:xlink="http://www.w3.org/1999/xlink" x="0px"
	 y="0px" viewBox="0 0 64 64" style="enable-background:new 0 0 64 64;" xml:space="preserve">
<style type="text/css">
	.st0{fill:#FFFFFF;}
</style>
<path class="st0" d="M22.3,57.4l-2.8,0.9l-0.9-2.7l2.8-0.9L22.3,57.4z M22.6,52.7c-0.1,0-0.3,0-0.4-0.1c-0.6-0.2-0.9-0.9-0.7-1.6
	l5-12.3c0.2-0.6,0.9-0.9,1.6-0.7c0.6,0.3,0.9,0.9,0.6,1.6l-5,12.3C23.5,52.4,23,52.7,22.6,52.7z M24.6,55.8l2.8-0.9l0.9,2.8
	l-2.8,0.9L24.6,55.8z M28.6,53c-0.2,0-0.3,0-0.5-0.1c-0.6-0.2-0.9-0.9-0.6-1.6l5-12.3c0.2-0.6,0.9-0.9,1.6-0.6
	c0.6,0.2,0.9,0.9,0.7,1.6l-5,12.3C29.5,52.7,29.1,53,28.6,53z M30.7,55.8l2.8-0.9l0.9,2.8l-2.8,0.9L30.7,55.8z M34.6,53
	c-0.1,0-0.3,0-0.5-0.1c-0.6-0.2-0.9-0.9-0.6-1.6l5-12.3c0.2-0.6,0.9-0.9,1.6-0.6c0.6,0.2,0.9,0.9,0.6,1.6l-5,12.3
	C35.5,52.7,35.1,53,34.6,53z"/>
<path class="st0" d="M50.9,24.2c0.1-0.8,0.2-1.6,0.2-2.4c0-7.4-6-13.4-13.4-13.4c-4.5,0-8.7,2.3-11.2,6c-1.2-0.5-2.4-0.8-3.6-0.8
	c-5.1,0-9.3,4.2-9.3,9.3v0.3c-4.1,1.4-7,5.2-7,9.7c0,5.6,4.6,10.2,10.2,10.2h5c1.6,0,1.5-2.7,0-2.7h-5c-4.2,0-7.5-3.4-7.5-7.5
	c0-3.6,2.5-6.7,6.1-7.4l1.3-0.3L16.4,24c-0.1-0.4-0.1-0.8-0.1-1.1c0-3.6,3-6.6,6.6-6.6c1.2,0,2.4,0.3,3.5,1l1.2,0.7l0.7-1.3
	c1.9-3.5,5.5-5.7,9.5-5.7c5.9,0,10.7,4.8,10.7,10.7c0,1.1-0.2,2.2-0.5,3.3l-0.6,1.9l2.1-0.1h0.3c3.8,0,6.8,3.1,6.8,6.8
	c0,3.8-3.1,6.8-6.8,6.8h-5.7c-1.7,0-2,2.7,0,2.7h5.7c5.2,0,9.5-4.3,9.5-9.5C59.2,28.8,55.5,24.8,50.9,24.2z"/>
</svg>
