<?xml version="1.0" encoding="utf-8"?>
<!-- Generator: Adobe Illustrator 21.1.0, SVG Export Plug-In . SVG Version: 6.00 Build 0)  -->
<svg version="1.1" id="weather-icon-chancerain" xmlns="http://www.w3.org/2000/svg" xmlns:xlink="http://www.w3.org/1999/xlink"
	 x="0px" y="0px" viewBox="0 0 64 64" style="enable-background:new 0 0 64 64;" xml:space="preserve">
<path d="M50.9,24.1c0.1-0.8,0.2-1.6,0.2-2.4c0-7.4-6-13.4-13.4-13.4c-4.5,0-8.7,2.3-11.2,6c-1.2-0.5-2.4-0.8-3.7-0.8
	c-5.1,0-9.3,4.1-9.3,9.3v0.3c-4.1,1.4-7,5.2-7,9.7c0,5.6,4.6,10.2,10.2,10.2h5c1.6,0,1.5-2.7,0-2.7h-5c-4.2,0-7.5-3.4-7.5-7.5
	c0-3.6,2.5-6.7,6.1-7.4l1.3-0.3l-0.2-1.3c-0.1-0.4-0.1-0.7-0.1-1.1c0-3.6,3-6.6,6.6-6.6c1.2,0,2.4,0.3,3.5,1l1.2,0.7l0.7-1.3
	c1.9-3.5,5.5-5.7,9.5-5.7c5.9,0,10.7,4.8,10.7,10.7c0,1.1-0.2,2.2-0.5,3.3l-0.6,1.9l2.1-0.1h0.3c3.8,0,6.8,3.1,6.8,6.8
	c0,3.8-3.1,6.8-6.8,6.8h-5.7c-1.7,0-2,2.7,0,2.7h5.7c5.2,0,9.5-4.3,9.5-9.5C59.2,28.7,55.5,24.7,50.9,24.1z"/>
<path d="M24.9,46.5c-0.3,0-0.5-0.1-0.8-0.2c-0.6-0.4-0.7-1.3-0.3-1.8l2.4-3.5c0.4-0.6,1.2-0.7,1.8-0.3c0.6,0.4,0.7,1.2,0.3,1.8
	L25.9,46C25.7,46.3,25.3,46.5,24.9,46.5z M30.7,46.5c-0.3,0-0.5-0.1-0.8-0.2c-0.6-0.4-0.7-1.3-0.3-1.8L32,41
	c0.4-0.6,1.3-0.7,1.8-0.3c0.6,0.4,0.7,1.2,0.3,1.8L31.7,46C31.5,46.3,31.1,46.5,30.7,46.5z M36.5,46.5c-0.3,0-0.5-0.1-0.8-0.2
	c-0.6-0.4-0.7-1.3-0.3-1.8l2.4-3.5c0.4-0.6,1.3-0.7,1.8-0.3c0.6,0.4,0.7,1.2,0.3,1.8L37.5,46C37.4,46.3,37,46.5,36.5,46.5z M18.6,56
	c-0.3,0-0.5-0.1-0.8-0.2c-0.6-0.4-0.7-1.2-0.3-1.8l2.4-3.5c0.4-0.6,1.3-0.7,1.9-0.3s0.7,1.2,0.3,1.8l-2.4,3.5
	C19.4,55.8,19,56,18.6,56z M24.5,56c-0.3,0-0.5-0.1-0.8-0.2c-0.6-0.4-0.7-1.2-0.3-1.8l2.4-3.5c0.4-0.6,1.2-0.7,1.8-0.3
	c0.6,0.4,0.7,1.2,0.3,1.8l-2.4,3.5C25.3,55.8,24.9,56,24.5,56z M30.3,56c-0.3,0-0.5-0.1-0.8-0.2c-0.6-0.4-0.7-1.2-0.3-1.8l2.4-3.5
	c0.4-0.6,1.2-0.7,1.8-0.3c0.6,0.4,0.7,1.2,0.3,1.8l-2.4,3.5C31.1,55.8,30.7,56,30.3,56z"/>
</svg>
