<?xml version="1.0" encoding="utf-8"?>
<!-- Generator: Adobe Illustrator 21.1.0, SVG Export Plug-In . SVG Version: 6.00 Build 0)  -->
<svg version="1.1" id="weather-icon-chancesleet" xmlns="http://www.w3.org/2000/svg" xmlns:xlink="http://www.w3.org/1999/xlink"
	 x="0px" y="0px" viewBox="0 0 64 64" style="enable-background:new 0 0 64 64;" xml:space="preserve">
<path d="M50.9,23.8c0.1-0.8,0.2-1.6,0.2-2.4C51.1,14,45.1,8,37.7,8c-4.5,0-8.7,2.3-11.2,6c-1.2-0.5-2.4-0.8-3.7-0.8
	c-5.1,0-9.3,4.2-9.3,9.3v0.3c-4.1,1.4-7,5.2-7,9.7c0,5.6,4.6,10.2,10.2,10.2h5c1.6,0,1.5-2.6,0-2.6h-5c-4.2,0-7.5-3.4-7.5-7.5
	c0-3.6,2.5-6.7,6.1-7.4l1.3-0.3l-0.2-1.3c-0.1-0.4-0.1-0.8-0.1-1.1c0-3.6,3-6.6,6.6-6.6c1.2,0,2.4,0.3,3.5,1l1.2,0.7l0.7-1.3
	c1.9-3.5,5.5-5.7,9.5-5.7c5.9,0,10.7,4.8,10.7,10.7c0,1.1-0.2,2.2-0.5,3.3l-0.6,1.9l2.1-0.1h0.3c3.8,0,6.8,3.1,6.8,6.8
	c0,3.8-3.1,6.8-6.8,6.8h-5.7c-1.7,0-2,2.6,0,2.6h5.7c5.2,0,9.5-4.3,9.5-9.5C59.2,28.4,55.5,24.4,50.9,23.8z"/>
<path d="M26.6,46c-0.2,0-0.3,0-0.5-0.1c-0.5-0.3-0.7-0.9-0.5-1.4l3.5-6.6c0.3-0.5,0.9-0.7,1.4-0.5c0.5,0.3,0.7,0.9,0.5,1.4l-3.5,6.6
	C27.4,45.8,27,46,26.6,46z M31.2,53c-0.2,0-0.3,0-0.5-0.1c-0.5-0.3-0.7-0.9-0.5-1.4l6.9-13.7c0.3-0.5,0.9-0.7,1.4-0.5
	c0.5,0.3,0.7,0.9,0.5,1.4l-6.9,13.7C32,52.8,31.6,53,31.2,53z M26.1,50.6l-2.8,1l-0.9-2.8l2.8-0.9L26.1,50.6z M27.1,55.7l2.8-0.9
	l0.9,2.8L28,58.4L27.1,55.7z"/>
</svg>
