<?xml version="1.0" encoding="utf-8"?>
<!-- Generator: Adobe Illustrator 21.1.0, SVG Export Plug-In . SVG Version: 6.00 Build 0)  -->
<svg version="1.1" id="weather-icon-clear" xmlns="http://www.w3.org/2000/svg" xmlns:xlink="http://www.w3.org/1999/xlink" x="0px"
	 y="0px" viewBox="0 0 64 64" style="enable-background:new 0 0 64 64;" xml:space="preserve">
<g id="clear">
	<path d="M32.9,19.2c-0.7,0-1.3-0.6-1.3-1.3v-4.6c0-0.7,0.6-1.3,1.3-1.3s1.3,0.6,1.3,1.3v4.6C34.2,18.6,33.6,19.2,32.9,19.2z
		 M32.9,53.8c-0.7,0-1.3-0.6-1.3-1.3v-4.6c0-0.7,0.6-1.3,1.3-1.3s1.3,0.6,1.3,1.3v4.6C34.2,53.2,33.6,53.8,32.9,53.8z M17.9,34.2
		h-4.6c-0.7,0-1.3-0.6-1.3-1.3s0.6-1.3,1.3-1.3h4.6c0.7,0,1.3,0.6,1.3,1.3S18.6,34.2,17.9,34.2z M52.5,34.2h-4.6
		c-0.7,0-1.3-0.6-1.3-1.3s0.6-1.3,1.3-1.3h4.6c0.7,0,1.3,0.6,1.3,1.3S53.2,34.2,52.5,34.2z M44,23.5c-0.3,0-0.7-0.1-0.9-0.4
		c-0.5-0.5-0.5-1.4,0-1.9l3.2-3.2c0.5-0.5,1.4-0.5,1.9,0s0.5,1.4,0,1.9L45,23.1C44.7,23.4,44.3,23.5,44,23.5z M19.1,48.4
		c-0.3,0-0.7-0.1-0.9-0.4c-0.5-0.5-0.5-1.4,0-1.9l3.2-3.2c0.5-0.5,1.4-0.5,1.9,0s0.5,1.4,0,1.9L20,48C19.8,48.3,19.4,48.4,19.1,48.4
		z M47.2,48.2c-0.3,0-0.7-0.1-0.9-0.4l-3.2-3.2c-0.5-0.5-0.5-1.4,0-1.9s1.4-0.5,1.9,0l3.2,3.2c0.5,0.5,0.5,1.4,0,1.9
		C47.9,48.1,47.6,48.2,47.2,48.2z M22.3,23.7c-0.3,0-0.7-0.1-0.9-0.4l-3.2-3.2c-0.5-0.5-0.5-1.4,0-1.9s1.4-0.5,1.9,0l3.2,3.2
		c0.5,0.5,0.5,1.4,0,1.9C23,23.6,22.7,23.7,22.3,23.7z M32.9,24.5c4.6,0,8.4,3.8,8.4,8.4s-3.8,8.4-8.4,8.4s-8.4-3.8-8.4-8.4
		S28.3,24.5,32.9,24.5 M32.9,21.8c-6.1,0-11.1,5-11.1,11.1S26.8,44,32.9,44S44,39,44,32.9S39,21.8,32.9,21.8z"/>
</g>
</svg>
