<?xml version="1.0" encoding="utf-8"?>
<!-- Generator: Adobe Illustrator 21.1.0, SVG Export Plug-In . SVG Version: 6.00 Build 0)  -->
<svg version="1.1" id="weather-icon-chanceflurries"
	 xmlns="http://www.w3.org/2000/svg" xmlns:xlink="http://www.w3.org/1999/xlink" x="0px" y="0px" viewBox="0 0 64 64"
	 style="enable-background:new 0 0 64 64;" xml:space="preserve">
<path d="M51,22c0.1-0.8,0.2-1.6,0.2-2.4c0-7.4-6-13.4-13.4-13.4c-4.6,0-8.7,2.3-11.2,6c-1.2-0.5-2.4-0.8-3.7-0.8
	c-5.1,0-9.3,4.2-9.3,9.3V21c-4.1,1.4-7,5.3-7,9.7c0,5.6,4.6,10.2,10.2,10.2h5c1.6,0,1.5-2.7,0-2.7h-5c-4.2,0-7.6-3.4-7.6-7.6
	c0-3.6,2.6-6.7,6.1-7.4l1.3-0.2l-0.2-1.3c-0.1-0.4-0.1-0.8-0.1-1.1c0-3.7,3-6.6,6.6-6.6c1.2,0,2.4,0.3,3.5,1l1.2,0.7l0.7-1.3
	c1.9-3.5,5.5-5.8,9.5-5.8c5.9,0,10.8,4.8,10.8,10.8c0,1.1-0.2,2.2-0.5,3.3l-0.6,1.9l2.1-0.1h0.3c3.8,0,6.9,3.1,6.9,6.9
	s-3.1,6.9-6.9,6.9h-5.8c-1.7,0-2,2.7,0,2.7h5.8c5.2,0,9.5-4.3,9.5-9.5C59.4,26.6,55.7,22.6,51,22z"/>
<path d="M40.9,49.3c0.7-0.9,0.5-2.2-0.4-2.9s-2.2-0.5-2.9,0.4C37,47.7,37.1,49,38,49.7S40.2,50.2,40.9,49.3z M28.2,49.3
	c0.7-0.9,0.5-2.2-0.4-2.9s-2.2-0.5-2.9,0.4c-0.7,0.9-0.5,2.2,0.4,2.9S27.5,50.2,28.2,49.3z"/>
<ellipse transform="matrix(0.6079 -0.794 0.794 0.6079 -32.1999 48.398)" cx="32.9" cy="56.8" rx="2.1" ry="2.1"/>
<ellipse transform="matrix(0.6082 -0.7938 0.7938 0.6082 -18.3087 41.5143)" cx="32.9" cy="39.3" rx="2.1" ry="2.1"/>
</svg>
