<?xml version="1.0" encoding="utf-8"?>
<!-- Generator: Adobe Illustrator 21.1.0, SVG Export Plug-In . SVG Version: 6.00 Build 0)  -->
<svg version="1.1" id="weather-icon-snow" xmlns="http://www.w3.org/2000/svg" xmlns:xlink="http://www.w3.org/1999/xlink" x="0px"
	 y="0px" viewBox="0 0 64 64" style="enable-background:new 0 0 64 64;" xml:space="preserve">
<path id="snow" d="M51.6,32h-5.2l2.2-2.2c0.4-0.4,0.4-1,0-1.4s-1-0.4-1.4,0L43.6,32h-8.3l5.9-5.9h5.1c0.5,0,1-0.4,1-1
	c0-0.5-0.4-1-1-1h-3.1l3.7-3.7c0.4-0.4,0.4-1,0-1.4s-1-0.4-1.4,0l-3.7,3.7v-3.1c0-0.5-0.4-1-1-1c-0.5,0-1,0.4-1,1v5.1l-5.9,5.9v-8.3
	l3.6-3.6c0.4-0.4,0.4-1,0-1.4s-1-0.4-1.4,0l-2.2,2.2v-5.2c0-0.5-0.4-1-1-1c-0.5,0-1,0.4-1,1v5.2l-2.2-2.2c-0.4-0.4-1-0.4-1.4,0
	s-0.4,1,0,1.4l3.6,3.6v8.3L26,24.7v-5.1c0-0.5-0.4-1-1-1c-0.5,0-1,0.4-1,1v3.1L20.3,19c-0.4-0.4-1-0.4-1.4,0s-0.4,1,0,1.4l3.7,3.7
	h-3.1c-0.5,0-1,0.4-1,1c0,0.5,0.4,1,1,1h5.1l5.9,5.9h-8.3l-3.6-3.6c-0.4-0.4-1-0.4-1.4,0s-0.4,1,0,1.4l2.2,2.2h-5.2
	c-0.5,0-1,0.4-1,1c0,0.5,0.4,1,1,1h5.2l-2.2,2.2c-0.4,0.4-0.4,1,0,1.4c0.2,0.2,0.4,0.3,0.7,0.3c0.2,0,0.5-0.1,0.7-0.3l3.6-3.6h8.3
	l-5.9,5.9h-5.1c-0.5,0-1,0.4-1,1c0,0.5,0.4,1,1,1h3.1L19,45.4c-0.4,0.4-0.4,1,0,1.4c0.2,0.2,0.4,0.3,0.7,0.3c0.2,0,0.5-0.1,0.7-0.3
	l3.7-3.7v3.1c0,0.5,0.4,1,1,1c0.5,0,1-0.4,1-1v-5.1l5.9-5.9v8.3l-3.6,3.6c-0.4,0.4-0.4,1,0,1.4c0.2,0.2,0.4,0.3,0.7,0.3
	c0.3,0,0.5-0.1,0.7-0.3l2.2-2.2v5.2c0,0.5,0.4,1,1,1c0.5,0,1-0.4,1-1v-5.2l2.2,2.2c0.2,0.2,0.4,0.3,0.7,0.3s0.5-0.1,0.7-0.3
	c0.4-0.4,0.4-1,0-1.4L34,43.5v-8.3l5.9,5.9v5.1c0,0.5,0.4,1,1,1c0.5,0,1-0.4,1-1v-3.1l3.7,3.7c0.2,0.2,0.4,0.3,0.7,0.3
	s0.5-0.1,0.7-0.3c0.4-0.4,0.4-1,0-1.4l-3.7-3.7h3.1c0.5,0,1-0.4,1-1c0-0.5-0.4-1-1-1h-5.1l-5.9-5.9h8.3l3.6,3.6
	c0.2,0.2,0.4,0.3,0.7,0.3s0.5-0.1,0.7-0.3c0.4-0.4,0.4-1,0-1.4l-2.2-2.2h5.2c0.5,0,1-0.4,1-1C52.5,32.4,52.1,32,51.6,32z"/>
</svg>
