<?xml version="1.0" encoding="utf-8"?>
<!-- Generator: Adobe Illustrator 21.1.0, SVG Export Plug-In . SVG Version: 6.00 Build 0)  -->
<svg version="1.1" id="weather-icon-partlycloudy" xmlns="http://www.w3.org/2000/svg" xmlns:xlink="http://www.w3.org/1999/xlink"
	 x="0px" y="0px" viewBox="0 0 64 64" style="enable-background:new 0 0 64 64;" xml:space="preserve">
<path d="M35.5,15.3c-0.7,0-1.3-0.6-1.3-1.3V9c0-0.7,0.6-1.3,1.3-1.3s1.3,0.6,1.3,1.3v5C36.8,14.7,36.2,15.3,35.5,15.3z M19.2,31.6
	h-5c-0.7,0-1.3-0.6-1.3-1.3c0-0.7,0.6-1.3,1.3-1.3h5c0.7,0,1.3,0.6,1.3,1.3C20.5,31,19.9,31.6,19.2,31.6z M56.7,31.6h-5
	c-0.7,0-1.3-0.6-1.3-1.3c0-0.7,0.6-1.3,1.3-1.3h5c0.7,0,1.3,0.6,1.3,1.3C58,31,57.4,31.6,56.7,31.6z M47.5,20
	c-0.3,0-0.7-0.1-0.9-0.4c-0.5-0.5-0.5-1.4,0-1.9l3.5-3.5c0.5-0.5,1.4-0.5,1.9,0s0.5,1.4,0,1.9l-3.5,3.5C48.2,19.8,47.8,20,47.5,20z
	 M51,46.8c-0.3,0-0.7-0.1-0.9-0.4l-3.5-3.5c-0.5-0.5-0.5-1.4,0-1.9s1.3-0.5,1.9,0l3.5,3.5c0.5,0.5,0.5,1.4,0,1.9
	C51.7,46.6,51.3,46.8,51,46.8z M24,20.2c-0.3,0-0.7-0.1-0.9-0.4l-3.5-3.5c-0.5-0.5-0.5-1.4,0-1.9s1.3-0.5,1.9,0l3.5,3.5
	c0.5,0.5,0.5,1.4,0,1.9C24.7,20.1,24.3,20.2,24,20.2z"/>
<path d="M33.4,58.2h-20c-3.7,0-6.7-3-6.7-6.7c0-2.8,1.7-5.3,4.3-6.3c0.1-3.3,2.8-6,6.2-6c0.7,0,1.4,0.1,2,0.4c1.6-2.2,4.2-3.6,7-3.6
	c4.8,0,8.7,3.9,8.7,8.7c0,0.4,0,0.7-0.1,1.1c2.8,0.6,5,3.1,5,6.2C39.7,55.4,36.9,58.2,33.4,58.2z M17.1,41.9c-1.9,0-3.5,1.6-3.5,3.5
	c0,0.2,0,0.4,0.1,0.6l0.2,1.3l-1.3,0.3c-1.9,0.4-3.3,2.1-3.3,4c0,2.2,1.8,4.1,4.1,4.1h20c2,0,3.6-1.6,3.6-3.6s-1.6-3.6-3.6-3.6h-0.2
	l-2,0.1l0.6-1.9c0.2-0.6,0.3-1.2,0.3-1.9c0-3.3-2.7-6-6-6c-2.2,0-4.3,1.2-5.3,3.2l-0.7,1.3l-1.2-0.7C18.4,42.1,17.7,41.9,17.1,41.9z
	"/>
<path d="M47.5,30.3c0-6.6-5.4-12-12-12s-12,5.4-12,12c0,0.7,0.1,1.4,0.2,2c0,0.8,0.7,1.4,1.4,1.3c0.4,0,1-0.3,1.1-0.7
	c0.2-0.5,0.1-1,0-1.5c-0.1-0.4-0.1-0.8-0.1-1.1c0-5.2,4.2-9.4,9.4-9.4s9.3,4.2,9.3,9.4c0,0.4-0.1,0.8-0.1,1.2
	c-0.1,0.4-0.1,0.8-0.2,1.2c-0.2,0.7-0.5,1.5-0.8,2.1c-0.4,0.7-0.8,1.3-1.3,1.9c-0.5,0.6-1.1,1.1-1.7,1.4c-0.7,0.4-1.4,0.7-2.1,1
	c-0.3,0.1-0.6,0.1-0.9,0.3c-0.3,0.1-0.5,0.4-0.6,0.7C37,40.3,37,40.4,37,40.6c0,0.7,0.6,1.3,1.4,1.4C43.5,40.9,47.5,35.9,47.5,30.3z
	"/>
</svg>
