<?xml version="1.0" encoding="utf-8"?>
<!-- Generator: Adobe Illustrator 21.1.0, SVG Export Plug-In . SVG Version: 6.00 Build 0)  -->
<svg version="1.1" id="weather-icon-rain" xmlns="http://www.w3.org/2000/svg" xmlns:xlink="http://www.w3.org/1999/xlink" x="0px"
	 y="0px" viewBox="0 0 64 64" style="enable-background:new 0 0 64 64;" xml:space="preserve">
<path d="M25.5,59.3c-0.2,0-0.3,0-0.5-0.1c-0.7-0.3-1-1.1-0.7-1.7l9.3-21.9c0.3-0.7,1.1-1,1.7-0.7c0.7,0.3,1,1.1,0.7,1.7l-9.3,21.9
	C26.5,59,26,59.3,25.5,59.3z M34,53.5c-0.2,0-0.3,0-0.5-0.1c-0.7-0.3-1-1.1-0.7-1.7l6.6-16c0.3-0.7,1.1-1,1.7-0.7
	c0.7,0.3,1,1.1,0.7,1.7l-6.6,16C35,53.2,34.5,53.5,34,53.5z M21.9,53.5c-0.2,0-0.3,0-0.5-0.1c-0.7-0.3-1-1.1-0.7-1.7l6.6-16
	c0.3-0.7,1.1-1,1.7-0.7c0.7,0.3,1,1.1,0.7,1.7l-6.6,16C22.9,53.2,22.5,53.5,21.9,53.5z"/>
<path d="M50.9,22.4c0.1-0.8,0.2-1.6,0.2-2.4c0-7.4-6-13.4-13.4-13.4c-4.5,0-8.7,2.3-11.2,6c-1.2-0.5-2.4-0.8-3.7-0.8
	c-5.1,0-9.3,4.2-9.3,9.3v0.3c-4.1,1.4-7,5.2-7,9.7c0,5.6,4.6,10.2,10.2,10.2h5c1.6,0,1.5-2.7,0-2.7h-5c-4.2,0-7.5-3.4-7.5-7.5
	c0-3.6,2.5-6.7,6.1-7.4l1.3-0.3l-0.2-1.3c-0.1-0.4-0.1-0.7-0.1-1.1c0-3.6,3-6.6,6.6-6.6c1.2,0,2.4,0.3,3.5,1l1.2,0.7l0.7-1.3
	c1.9-3.5,5.5-5.7,9.5-5.7c5.9,0,10.7,4.8,10.7,10.7c0,1.1-0.2,2.2-0.5,3.3L47.4,25l2.1-0.1h0.3c3.8,0,6.8,3.1,6.8,6.8
	c0,3.8-3.1,6.8-6.8,6.8h-5.7c-1.7,0-2,2.7,0,2.7h5.7c5.2,0,9.5-4.3,9.5-9.5C59.2,27,55.6,23,50.9,22.4z"/>
</svg>
